<svg xmlns="http://www.w3.org/2000/svg" viewBox="238 0 64 80">
  <path fill="#b5f978" d="M243.8,0h0c1.9,0,3.7.8,5,2.1l13.3,13.3c2.1,2.1,5.5,2.1,7.6,0l13.3-13.3c1.3-1.3,3.2-2.1,5-2.1h0c6.4,0,9.5,7.7,5,12.2l-22.2,22.2c-2.8,2.8-7.3,2.8-10.1,0l-22.2-22.2c-4.5-4.5-1.3-12.2,5-12.2Z"/>
  <path fill="#b5f978" d="M288.1,79h0c-1.9,0-3.7-.8-5-2.1l-13.3-13.3c-2.1-2.1-5.5-2.1-7.6,0l-13.3,13.3c-1.3,1.3-3.2,2.1-5,2.1h0c-6.4,0-9.5-7.7-5-12.2l22.2-22.2c2.8-2.8,7.3-2.8,10.1,0l22.2,22.2c4.5,4.5,1.3,12.2-5,12.2Z"/>
</svg>
